<mxfile host="app.diagrams.net" modified="2023-05-24T18:04:59.534Z" agent="Mozilla/5.0 (Windows NT 10.0; Win64; x64) AppleWebKit/537.36 (KHTML, like Gecko) Chrome/113.0.0.0 Safari/537.36" etag="CFdcY8NrgfwKNejP8vXn" version="21.3.3" type="device">
  <diagram name="페이지-1" id="UhswoTwN5EX5m7q8Bifa">
    <mxGraphModel dx="1050" dy="549" grid="1" gridSize="10" guides="1" tooltips="1" connect="1" arrows="1" fold="1" page="1" pageScale="1" pageWidth="827" pageHeight="1169" math="0" shadow="0">
      <root>
        <mxCell id="0" />
        <mxCell id="1" parent="0" />
        <mxCell id="BmULdW4PmcLErp_iG1h3-78" style="edgeStyle=orthogonalEdgeStyle;rounded=0;orthogonalLoop=1;jettySize=auto;html=1;exitX=0;exitY=0.5;exitDx=0;exitDy=0;entryX=1;entryY=0.5;entryDx=0;entryDy=0;dashed=1;" parent="1" source="BmULdW4PmcLErp_iG1h3-77" target="BmULdW4PmcLErp_iG1h3-18" edge="1">
          <mxGeometry relative="1" as="geometry">
            <Array as="points">
              <mxPoint x="440" y="225" />
            </Array>
          </mxGeometry>
        </mxCell>
        <mxCell id="BmULdW4PmcLErp_iG1h3-77" value="" style="rounded=0;whiteSpace=wrap;html=1;" parent="1" vertex="1">
          <mxGeometry x="430" y="180" width="140" height="150" as="geometry" />
        </mxCell>
        <mxCell id="BmULdW4PmcLErp_iG1h3-82" style="edgeStyle=orthogonalEdgeStyle;rounded=0;orthogonalLoop=1;jettySize=auto;html=1;dashed=1;" parent="1" source="BmULdW4PmcLErp_iG1h3-5" edge="1">
          <mxGeometry relative="1" as="geometry">
            <mxPoint x="430" y="285" as="targetPoint" />
            <Array as="points">
              <mxPoint x="430" y="285" />
            </Array>
          </mxGeometry>
        </mxCell>
        <mxCell id="BmULdW4PmcLErp_iG1h3-5" value="맞춤학습지 출제" style="ellipse;whiteSpace=wrap;html=1;" parent="1" vertex="1">
          <mxGeometry x="200" y="260" width="110" height="50" as="geometry" />
        </mxCell>
        <mxCell id="BmULdW4PmcLErp_iG1h3-65" style="edgeStyle=orthogonalEdgeStyle;rounded=0;orthogonalLoop=1;jettySize=auto;html=1;" parent="1" source="BmULdW4PmcLErp_iG1h3-9" target="BmULdW4PmcLErp_iG1h3-55" edge="1">
          <mxGeometry relative="1" as="geometry">
            <Array as="points">
              <mxPoint x="85" y="435" />
            </Array>
          </mxGeometry>
        </mxCell>
        <mxCell id="BmULdW4PmcLErp_iG1h3-69" style="edgeStyle=orthogonalEdgeStyle;rounded=0;orthogonalLoop=1;jettySize=auto;html=1;" parent="1" source="BmULdW4PmcLErp_iG1h3-9" target="BmULdW4PmcLErp_iG1h3-54" edge="1">
          <mxGeometry relative="1" as="geometry">
            <Array as="points">
              <mxPoint x="85" y="375" />
            </Array>
          </mxGeometry>
        </mxCell>
        <mxCell id="BmULdW4PmcLErp_iG1h3-9" value="선생님" style="shape=umlActor;verticalLabelPosition=bottom;verticalAlign=top;html=1;outlineConnect=0;" parent="1" vertex="1">
          <mxGeometry x="70" y="295" width="30" height="60" as="geometry" />
        </mxCell>
        <mxCell id="BmULdW4PmcLErp_iG1h3-18" value="정오답 기록" style="ellipse;whiteSpace=wrap;html=1;" parent="1" vertex="1">
          <mxGeometry x="200" y="200" width="110" height="50" as="geometry" />
        </mxCell>
        <mxCell id="BmULdW4PmcLErp_iG1h3-19" value="진단학습지 출제" style="ellipse;whiteSpace=wrap;html=1;" parent="1" vertex="1">
          <mxGeometry x="200" y="140" width="110" height="50" as="geometry" />
        </mxCell>
        <mxCell id="BmULdW4PmcLErp_iG1h3-62" style="edgeStyle=orthogonalEdgeStyle;rounded=0;orthogonalLoop=1;jettySize=auto;html=1;entryX=1;entryY=0.5;entryDx=0;entryDy=0;" parent="1" source="BmULdW4PmcLErp_iG1h3-23" target="BmULdW4PmcLErp_iG1h3-60" edge="1">
          <mxGeometry relative="1" as="geometry" />
        </mxCell>
        <mxCell id="BmULdW4PmcLErp_iG1h3-63" style="edgeStyle=orthogonalEdgeStyle;rounded=0;orthogonalLoop=1;jettySize=auto;html=1;entryX=1;entryY=0.5;entryDx=0;entryDy=0;" parent="1" source="BmULdW4PmcLErp_iG1h3-23" target="BmULdW4PmcLErp_iG1h3-61" edge="1">
          <mxGeometry relative="1" as="geometry" />
        </mxCell>
        <mxCell id="BmULdW4PmcLErp_iG1h3-23" value="AI진단API&lt;br&gt;(외부시스템)" style="shape=umlActor;verticalLabelPosition=bottom;verticalAlign=top;html=1;outlineConnect=0;" parent="1" vertex="1">
          <mxGeometry x="610" y="220" width="30" height="60" as="geometry" />
        </mxCell>
        <mxCell id="BmULdW4PmcLErp_iG1h3-47" style="edgeStyle=orthogonalEdgeStyle;rounded=0;orthogonalLoop=1;jettySize=auto;html=1;entryX=0;entryY=0.5;entryDx=0;entryDy=0;" parent="1" source="BmULdW4PmcLErp_iG1h3-44" target="BmULdW4PmcLErp_iG1h3-19" edge="1">
          <mxGeometry relative="1" as="geometry" />
        </mxCell>
        <mxCell id="BmULdW4PmcLErp_iG1h3-48" style="edgeStyle=orthogonalEdgeStyle;rounded=0;orthogonalLoop=1;jettySize=auto;html=1;entryX=0;entryY=0.5;entryDx=0;entryDy=0;" parent="1" source="BmULdW4PmcLErp_iG1h3-44" target="BmULdW4PmcLErp_iG1h3-18" edge="1">
          <mxGeometry relative="1" as="geometry" />
        </mxCell>
        <mxCell id="BmULdW4PmcLErp_iG1h3-50" style="edgeStyle=orthogonalEdgeStyle;rounded=0;orthogonalLoop=1;jettySize=auto;html=1;entryX=0;entryY=0.5;entryDx=0;entryDy=0;" parent="1" source="BmULdW4PmcLErp_iG1h3-44" target="BmULdW4PmcLErp_iG1h3-5" edge="1">
          <mxGeometry relative="1" as="geometry" />
        </mxCell>
        <mxCell id="BmULdW4PmcLErp_iG1h3-44" value="학습자" style="shape=umlActor;verticalLabelPosition=bottom;verticalAlign=top;html=1;outlineConnect=0;" parent="1" vertex="1">
          <mxGeometry x="70" y="90" width="30" height="60" as="geometry" />
        </mxCell>
        <mxCell id="BmULdW4PmcLErp_iG1h3-54" value="학습자 관리" style="ellipse;whiteSpace=wrap;html=1;" parent="1" vertex="1">
          <mxGeometry x="200" y="350" width="110" height="50" as="geometry" />
        </mxCell>
        <mxCell id="BmULdW4PmcLErp_iG1h3-55" value="학습자 통계" style="ellipse;whiteSpace=wrap;html=1;" parent="1" vertex="1">
          <mxGeometry x="200" y="410" width="110" height="50" as="geometry" />
        </mxCell>
        <mxCell id="BmULdW4PmcLErp_iG1h3-59" value="" style="endArrow=none;html=1;rounded=0;edgeStyle=orthogonalEdgeStyle;" parent="1" edge="1">
          <mxGeometry width="50" height="50" relative="1" as="geometry">
            <mxPoint x="100" y="330" as="sourcePoint" />
            <mxPoint x="150" y="280" as="targetPoint" />
          </mxGeometry>
        </mxCell>
        <mxCell id="BmULdW4PmcLErp_iG1h3-60" value="수준 분석" style="ellipse;whiteSpace=wrap;html=1;" parent="1" vertex="1">
          <mxGeometry x="440" y="200" width="110" height="50" as="geometry" />
        </mxCell>
        <mxCell id="BmULdW4PmcLErp_iG1h3-61" value="문항 추천" style="ellipse;whiteSpace=wrap;html=1;" parent="1" vertex="1">
          <mxGeometry x="440" y="260" width="110" height="50" as="geometry" />
        </mxCell>
        <mxCell id="BmULdW4PmcLErp_iG1h3-74" value="&amp;lt;&amp;lt; include&amp;gt;&amp;gt;" style="text;html=1;strokeColor=none;fillColor=none;align=center;verticalAlign=middle;whiteSpace=wrap;rounded=0;" parent="1" vertex="1">
          <mxGeometry x="320" y="200" width="100" height="30" as="geometry" />
        </mxCell>
        <mxCell id="BmULdW4PmcLErp_iG1h3-83" value="&amp;lt;&amp;lt; include&amp;gt;&amp;gt;" style="text;html=1;strokeColor=none;fillColor=none;align=center;verticalAlign=middle;whiteSpace=wrap;rounded=0;" parent="1" vertex="1">
          <mxGeometry x="320" y="260" width="100" height="30" as="geometry" />
        </mxCell>
      </root>
    </mxGraphModel>
  </diagram>
</mxfile>
